<svg version="1" xmlns="http://www.w3.org/2000/svg" width="240" height="240" viewBox="0 0 180.000000 180.000000"><path d="M0 90v90h180V0H0v90zm89-24.1v5.9L83.4 75c-6.1 3.4-7.8 3.3-13.3-.9l-2.4-1.8 10.4-6.1c5.7-3.3 10.5-6.1 10.7-6.1.1-.1.2 2.6.2 5.8zm20.9 8.2c-5.5 4.2-7.2 4.3-13.3.9L91 71.8V60.1l10.6 6.1 10.6 6.1-2.3 1.8zm-38.3 3.5l4.4 2.6v13.6l-4.6 2.6c-2.6 1.4-4.8 2.6-5 2.6-.2 0-.4-5.4-.4-12s.3-12 .6-12 2.5 1.2 5 2.6zM89 80.1c0 5.1 0 5.1-2.2 3.7-1.3-.8-3.4-2.1-4.7-2.7l-2.3-1.3 3.8-2.4c2.2-1.3 4.2-2.4 4.7-2.4.4 0 .7 2.3.7 5.1zm7.4-2.7l3.9 2.4-2.4 1.2c-1.3.7-3.4 2-4.6 2.8-2.3 1.4-2.3 1.4-2.3-3.7 0-2.8.3-5.1.8-5.1.4 0 2.5 1.1 4.6 2.4zM114 87c0 6.6-.2 12-.4 12s-2.4-1.2-5-2.6l-4.6-2.6V80.2l4.3-2.6c2.3-1.4 4.5-2.5 5-2.6.4 0 .7 5.4.7 12zm-27 0c0 .3-1.8 1.6-4 2.9l-4 2.2V81.9l4 2.2c2.2 1.3 4 2.6 4 2.9zm1.7 11.6c-.2.3-2.3-.6-4.6-1.9l-4.2-2.4 4.3-2.6 4.3-2.5.3 4.5c.2 2.5.1 4.7-.1 4.9zm9.1-5.8l2.3 1.5-3.8 2.3c-2.1 1.3-4.1 2.4-4.5 2.4-.5 0-.8-2.3-.8-5 0-5.6.1-5.6 6.8-1.2zm-14.2 6.3l5.4 3v11.8l-10.5-6c-5.8-3.4-10.5-6.2-10.5-6.4 0-.6 8.4-5.5 9.4-5.5.5 0 3.3 1.4 6.2 3.1zM107 98c2.1 1.1 4.1 2.4 4.4 2.9.4.5-4.1 3.6-9.9 7l-10.5 6v-11.7l5.3-3.1c2.8-1.7 5.6-3.1 6-3.1.4 0 2.5.9 4.7 2z"/></svg>